<?xml version="1.0" standalone="no"?>
<!DOCTYPE svg PUBLIC "-//W3C//DTD SVG 20010904//EN"
 "http://www.w3.org/TR/2001/REC-SVG-20010904/DTD/svg10.dtd">
<svg version="1.0" xmlns="http://www.w3.org/2000/svg"
 width="2000.000000pt" height="2000.000000pt" viewBox="0 0 2000.000000 2000.000000"
 preserveAspectRatio="xMidYMid meet">
<metadata>
Created by potrace 1.14, written by Peter Selinger 2001-2017
</metadata>
<g transform="translate(0.000000,2000.000000) scale(0.100000,-0.100000)"
fill="#000000" stroke="none">
<path d="M1260 9920 l0 -1960 8005 0 8005 0 0 75 c0 73 1 75 23 70 75 -17 172
-35 192 -35 26 0 50 32 42 54 -4 9 28 19 107 35 163 33 185 40 196 61 6 10 35
171 65 357 l56 338 51 100 c28 55 52 101 53 103 2 2 18 -4 35 -13 37 -19 76
-13 85 14 8 28 -3 48 -36 61 -16 7 -32 16 -35 21 -4 8 58 141 78 166 8 10 17
9 40 -3 36 -18 74 -12 83 15 9 28 -3 46 -41 64 l-34 17 45 90 45 90 31 -16
c37 -18 75 -12 84 15 9 28 -4 50 -41 69 l-33 17 38 70 c21 39 42 69 47 68 5
-1 24 -8 42 -15 42 -16 67 -2 67 38 0 20 -7 32 -22 39 -19 8 -9 16 88 67 61
32 130 72 155 88 42 29 74 74 74 102 0 24 -116 194 -148 216 -31 23 -96 29
-137 13 -16 -6 -26 1 -55 40 -19 26 -76 94 -126 151 -137 158 -158 191 -162
265 -9 134 16 167 189 252 95 47 119 63 144 99 27 39 30 51 30 120 0 67 -5 86
-34 144 -18 36 -43 75 -54 87 -12 11 -119 63 -237 115 l-214 96 -323 0 c-266
0 -336 3 -388 16 -64 16 -65 17 -65 50 l0 34 -8005 0 -8005 0 0 -1960z m16068
1784 l22 -6 0 -1755 0 -1755 -32 7 c-18 4 -36 9 -40 12 -5 2 -8 791 -8 1754 0
1659 1 1749 18 1749 9 0 27 -3 40 -6z m282 -24 c0 -26 -72 -459 -81 -487 -6
-17 -28 -51 -49 -75 l-39 -43 -1 308 0 307 85 0 c51 0 85 -4 85 -10z m430 -36
c31 -63 24 -109 -38 -241 -28 -59 -60 -130 -70 -158 -11 -27 -79 -180 -151
-339 -135 -298 -199 -409 -288 -501 l-48 -50 -3 305 -3 305 23 15 c13 8 44 34
69 58 73 67 93 124 134 383 19 123 37 234 40 247 5 22 8 22 159 22 l154 0 22
-46z m270 -84 l125 -56 29 -58 c20 -39 30 -72 30 -106 1 -42 -3 -53 -32 -83
-20 -20 -62 -45 -101 -61 -98 -38 -157 -79 -190 -131 l-28 -45 -42 30 c-100
73 -103 128 -16 310 50 106 59 132 63 195 4 63 7 72 21 67 9 -3 72 -31 141
-62z m-14660 -585 l0 -255 -462 0 c-255 0 -500 -4 -545 -10 -139 -16 -211 -70
-233 -176 -22 -103 16 -210 93 -261 52 -36 122 -43 419 -43 314 0 383 -9 505
-65 230 -106 378 -301 429 -565 19 -97 19 -294 0 -392 -28 -146 -109 -302
-205 -398 -66 -66 -186 -143 -263 -169 -103 -35 -248 -42 -853 -39 l-570 3 -3
243 -2 242 558 0 c523 0 564 1 636 20 129 33 209 108 236 221 26 107 -4 213
-80 290 -88 88 -131 99 -404 99 -347 0 -503 24 -666 102 -165 79 -292 243
-337 435 -25 106 -25 340 0 433 57 210 205 396 384 481 118 56 135 57 776 58
l587 1 0 -255z m1839 -602 c240 -468 439 -855 444 -859 4 -4 7 380 7 854 l0
862 230 0 230 0 -2 -1312 -3 -1313 -229 0 -229 0 -441 854 -441 854 -5 -854
-5 -854 -232 -3 -233 -2 0 1315 0 1315 236 -2 237 -3 436 -852z m2141 341 c0
-477 1 -515 17 -512 9 2 190 233 403 513 l386 510 252 3 c139 1 252 0 252 -3
0 -2 -214 -286 -476 -631 -261 -344 -480 -634 -486 -644 -10 -15 33 -78 282
-416 162 -220 383 -517 492 -662 109 -145 198 -265 198 -268 0 -2 -114 -4
-253 -4 l-252 0 -393 520 c-217 286 -400 520 -408 520 -12 0 -14 -79 -14 -520
l0 -520 -245 0 -245 0 0 1315 0 1315 245 0 245 0 0 -516z m3760 296 l0 -220
-650 0 -650 0 0 -325 0 -325 650 0 650 0 0 -220 0 -220 -650 0 -650 0 0 -325
0 -325 650 0 650 0 0 -225 0 -225 -897 2 -898 3 -3 1313 -2 1312 900 0 900 0
0 -220z m2099 196 c130 -43 203 -88 297 -181 76 -76 97 -104 136 -185 67 -137
81 -214 76 -413 -4 -141 -8 -172 -31 -242 -38 -114 -90 -198 -182 -291 -131
-133 -269 -188 -497 -201 -65 -3 -118 -7 -118 -9 0 -2 196 -243 435 -536 239
-293 435 -536 435 -540 0 -4 -123 -8 -273 -8 l-273 0 -414 527 -415 527 -5
-525 -5 -524 -242 -3 -243 -2 0 1315 0 1316 633 -3 c580 -3 637 -5 686 -22z
m2931 -230 l0 -254 -517 -4 c-584 -5 -591 -6 -662 -77 -107 -107 -69 -322 68
-384 43 -20 68 -22 391 -27 344 -6 345 -6 424 -34 127 -44 202 -91 296 -185
148 -149 218 -322 227 -566 6 -147 -10 -258 -54 -377 -71 -192 -247 -365 -436
-429 -98 -33 -244 -40 -847 -37 l-565 3 -3 243 -2 242 552 0 c598 0 647 4 732
54 99 59 148 145 148 260 -1 117 -40 197 -125 254 -77 52 -93 55 -407 63 -364
8 -474 26 -624 101 -181 91 -296 247 -340 460 -23 111 -21 292 4 397 23 96 83
222 143 300 93 121 266 226 402 244 17 2 292 5 613 6 l582 1 0 -254z m1649
-15 c48 -31 49 -33 55 -94 12 -106 32 -139 263 -412 90 -106 123 -164 123
-212 0 -19 -23 -75 -57 -140 l-58 -109 -42 18 c-51 22 -83 12 -83 -27 0 -24
41 -65 66 -65 21 0 17 -14 -21 -90 l-35 -70 -41 21 c-45 22 -83 20 -93 -7 -11
-30 4 -52 50 -73 l44 -21 -47 -89 -47 -88 -43 19 c-46 20 -77 17 -87 -9 -11
-28 4 -51 44 -70 22 -10 40 -21 40 -26 0 -4 -18 -43 -40 -87 -43 -85 -51 -90
-101 -64 -33 17 -64 12 -73 -13 -11 -28 4 -53 45 -73 l39 -20 -42 -85 c-24
-47 -48 -85 -56 -85 -24 0 -70 29 -90 57 -27 40 -40 81 -68 223 -31 159 -73
249 -146 315 -29 26 -69 55 -90 66 l-38 19 0 281 0 281 81 76 c129 121 184
208 317 503 l117 260 32 -40 c18 -21 55 -53 82 -70z m-539 -1468 c47 -53 67
-105 95 -245 l24 -123 -21 -100 c-16 -77 -21 -136 -21 -255 0 -182 22 -300 78
-419 20 -41 34 -75 33 -77 -5 -4 -247 -54 -263 -54 -13 0 -15 85 -15 676 l0
675 29 -20 c16 -11 43 -37 61 -58z m232 -552 c24 -16 53 -32 66 -35 12 -4 22
-11 22 -16 0 -19 -79 -492 -83 -496 -6 -7 -46 134 -57 201 -15 90 -10 375 6
375 2 0 22 -13 46 -29z"/>
<path d="M12660 10460 l0 -311 328 3 c280 3 333 6 371 21 69 27 111 65 140
126 23 49 26 69 26 161 0 90 -3 112 -24 153 -29 60 -74 105 -131 131 -42 20
-65 21 -377 24 l-333 3 0 -311z"/>
<path d="M17826 10445 c-3 -8 2 -22 11 -30 14 -15 18 -15 31 -1 8 8 12 22 9
30 -8 20 -43 21 -51 1z"/>
<path d="M17980 10324 c-11 -12 -10 -18 3 -31 8 -9 23 -13 31 -10 21 8 21 43
0 51 -21 8 -20 8 -34 -10z"/>
<path d="M18124 10195 c-8 -19 3 -35 26 -35 19 0 34 25 24 41 -8 14 -44 10
-50 -6z"/>
<path d="M17656 10043 c-4 -9 0 -23 9 -32 13 -14 17 -14 31 1 9 9 14 24 11 32
-8 21 -43 20 -51 -1z"/>
<path d="M17812 9931 c-20 -12 -10 -46 14 -49 25 -4 40 24 23 44 -13 16 -19
17 -37 5z"/>
</g>
</svg>
