<?xml version="1.0" standalone="no"?>
<svg viewBox="0 0 200 200" xmlns="http://www.w3.org/2000/svg">
  <path fill="#FFEA00" d="M44,-68.3C54.9,-69.9,60.3,-53.9,62.4,-39.6C64.6,-25.3,63.5,-12.6,56.4,-4.1C49.3,4.4,36.2,8.9,31.2,18.2C26.2,27.5,29.2,41.7,25.4,44C21.5,46.3,10.8,36.7,1.7,33.8C-7.4,31,-14.9,34.8,-23.2,35.1C-31.5,35.3,-40.7,32.1,-42.8,25.6C-45,19.2,-40.1,9.6,-42.1,-1.1C-44.1,-11.9,-52.9,-23.7,-53.5,-35C-54.2,-46.4,-46.7,-57.1,-36.4,-55.9C-26.1,-54.7,-13.1,-41.6,1.7,-44.6C16.5,-47.7,33.1,-66.8,44,-68.3Z" transform="translate(100 100)" />
</svg>
