<?xml version="1.0" standalone="no"?>
<svg viewBox="0 0 200 200" xmlns="http://www.w3.org/2000/svg">
  <path fill="#C8C8C8" d="M28.8,-45.9C38.5,-44.3,48.3,-38.9,51.9,-30.7C55.5,-22.4,52.9,-11.2,54.9,1.2C57,13.6,63.8,27.1,63.4,41.1C63.1,55,55.6,69.2,43.9,69C32.1,68.8,16.1,54.1,3.6,47.9C-8.9,41.7,-17.8,44,-31.4,45.3C-45,46.6,-63.3,46.9,-65.4,39.1C-67.5,31.4,-53.3,15.7,-53.3,0C-53.3,-15.7,-67.5,-31.5,-68,-43.6C-68.5,-55.8,-55.3,-64.3,-41.7,-63.7C-28.1,-63,-14,-53.1,-2.2,-49.2C9.6,-45.3,19.1,-47.5,28.8,-45.9Z" transform="translate(100 100)" />
</svg>
