<svg id="visual" viewBox="0 0 900 900" width="900" height="900" xmlns="http://www.w3.org/2000/svg" xmlns:xlink="http://www.w3.org/1999/xlink" version="1.1"><g transform="translate(474.4853536083343 455.47427368581424)"><path d="M170.2 -230.6C258.5 -170.1 394.1 -171.1 420.2 -127.8C446.4 -84.5 363 3.2 315.6 88.2C268.3 173.3 257 255.7 210.4 313.4C163.8 371.1 81.9 404.1 37.8 352C-6.3 300 -12.5 162.9 -87.2 114.4C-161.9 65.8 -304.9 105.7 -390.9 72.4C-477 39.1 -506 -67.4 -431.3 -91.6C-356.6 -115.9 -178.3 -57.9 -89.2 -118.1C0 -178.3 0 -356.7 20.5 -384.8C40.9 -413 81.9 -291.1 170.2 -230.6" fill="#60342B"></path></g></svg>