<svg id="visual" viewBox="0 0 900 900" width="900" height="900" xmlns="http://www.w3.org/2000/svg" xmlns:xlink="http://www.w3.org/1999/xlink" version="1.1"><g transform="translate(424.25400075803145 467.1977962656371)"><path d="M193.6 -239.5C264.9 -214.6 346.4 -176.8 323.2 -132.4C299.9 -88 171.8 -36.9 129.3 25.9C86.8 88.8 129.8 163.3 122.5 202.9C115.2 242.6 57.6 247.3 28.8 207.6C0 168 0 84 -62.8 62.4C-125.5 40.8 -251.1 81.6 -272.3 74.7C-293.6 67.8 -210.5 13.2 -170.8 -38.9C-131 -91 -134.6 -140.5 -113.3 -181.6C-92.1 -222.7 -46 -255.4 7.5 -265.8C61.1 -276.1 122.3 -264.3 193.6 -239.5" fill="#60342B"></path></g></svg>