<svg id="visual" viewBox="0 0 900 900" width="900" height="900" xmlns="http://www.w3.org/2000/svg" xmlns:xlink="http://www.w3.org/1999/xlink" version="1.1"><g transform="translate(483.3070126210752 501.14839992482393)"><path d="M210.4 -298.3C273.5 -243.8 326 -183.4 312.3 -125.2C298.6 -67 218.7 -10.9 178.6 41.1C138.4 93.2 138 141.2 114.8 187.4C91.7 233.5 45.8 277.8 6.8 268.5C-32.3 259.2 -64.7 196.3 -133.3 165C-201.9 133.6 -306.9 133.7 -353.3 91.1C-399.8 48.5 -387.7 -36.8 -319.1 -59.1C-250.4 -81.4 -125.2 -40.7 -62.6 -95.3C0 -150 0 -300 36.8 -350.7C73.7 -401.4 147.3 -352.8 210.4 -298.3" fill="#01A6A8"></path></g></svg>