<svg id="visual" viewBox="0 0 900 900" width="900" height="900" xmlns="http://www.w3.org/2000/svg" xmlns:xlink="http://www.w3.org/1999/xlink" version="1.1"><g transform="translate(385.1175497694865 415.0615314953816)"><path d="M245.1 -290.2C290 -304.8 279.6 -196.1 317.6 -98.6C355.7 -1 442.2 85.4 452.5 175.8C462.7 266.2 396.7 360.7 308.6 361.4C220.4 362 110.2 269 19.8 241.7C-70.5 214.4 -141.1 252.8 -143.8 224.4C-146.5 195.9 -81.3 100.6 -122.3 27.3C-163.3 -46 -310.4 -97.3 -322.9 -119.1C-335.3 -140.9 -213.2 -133.1 -137 -108.4C-60.7 -83.6 -30.4 -41.8 34.9 -89.8C100.1 -137.8 200.2 -275.6 245.1 -290.2" fill="#E78400"></path></g></svg>