<?xml version="1.0" standalone="no"?>
<svg viewBox="0 0 200 200" xmlns="http://www.w3.org/2000/svg">
  <path fill="#707580" d="M39.3,-68.3C47.9,-63,50,-46.5,56.2,-33.3C62.4,-20,72.9,-10,74.7,1C76.5,12.1,69.6,24.1,60.7,32.9C51.9,41.6,41.1,47.1,30.7,56.5C20.2,65.9,10.1,79.3,-2.8,84.2C-15.8,89.1,-31.5,85.5,-44.2,77.3C-56.9,69.2,-66.6,56.6,-69.7,43C-72.9,29.3,-69.6,14.7,-64.4,3C-59.2,-8.7,-52.2,-17.4,-46.7,-27.1C-41.3,-36.9,-37.6,-47.7,-30.1,-53.6C-22.5,-59.6,-11.3,-60.5,2,-64C15.3,-67.5,30.6,-73.5,39.3,-68.3Z" transform="translate(100 100)" />
</svg>
