<?xml version="1.0" standalone="no"?>
<svg viewBox="0 0 200 200" xmlns="http://www.w3.org/2000/svg">
  <path fill="#9C7B76" d="M30.7,-50.3C42.3,-46.4,55.9,-43.3,67.1,-35C78.4,-26.7,87.3,-13.4,84.4,-1.7C81.5,10,66.9,20.1,58.3,33C49.7,45.9,47.2,61.6,38.5,65.7C29.8,69.7,14.9,62.1,1.2,60C-12.4,57.9,-24.8,61.2,-36.9,59.1C-48.9,56.9,-60.6,49.3,-65.9,38.6C-71.2,27.8,-70,13.9,-67,1.7C-64,-10.4,-59.1,-20.9,-52,-28.5C-44.9,-36.1,-35.7,-41,-26.7,-46.3C-17.6,-51.7,-8.8,-57.5,0.4,-58.2C9.5,-58.8,19.1,-54.2,30.7,-50.3Z" transform="translate(100 100)" />
</svg>
