<?xml version="1.0" standalone="no"?>
<svg viewBox="0 0 200 200" xmlns="http://www.w3.org/2000/svg">
  <path fill="#A58584" d="M39.7,-69.8C51.3,-62,60.4,-51.1,68.9,-38.9C77.4,-26.7,85.4,-13.4,82.6,-1.6C79.8,10.1,66.2,20.3,56.6,30.6C47,40.9,41.4,51.3,32.6,56.2C23.8,61,11.9,60.3,0.7,59.1C-10.6,58,-21.1,56.4,-33.7,53.7C-46.3,51.1,-60.9,47.4,-64.9,38.2C-68.8,29.1,-62.1,14.5,-63,-0.5C-63.9,-15.6,-72.3,-31.1,-67.4,-38.6C-62.5,-46.1,-44.2,-45.5,-30.7,-52.2C-17.3,-58.9,-8.6,-72.9,2.7,-77.5C14.1,-82.2,28.1,-77.6,39.7,-69.8Z" transform="translate(100 100)" />
</svg>
