<?xml version="1.0" standalone="no"?>
<svg viewBox="0 0 200 200" xmlns="http://www.w3.org/2000/svg">
  <path fill="#B08572" d="M41.2,-76C51.3,-65.5,56.1,-50.3,57.5,-36.9C59,-23.4,57.2,-11.7,58.6,0.8C59.9,13.3,64.5,26.6,61,36.5C57.5,46.5,46.1,53.2,34.6,58.9C23.1,64.6,11.5,69.3,-2,72.7C-15.5,76.2,-31.1,78.5,-40.5,71.6C-49.9,64.7,-53.1,48.6,-59.3,35.2C-65.4,21.7,-74.4,10.9,-76.9,-1.4C-79.4,-13.7,-75.3,-27.4,-66.2,-35.7C-57,-43.9,-42.8,-46.7,-30.9,-56.2C-19.1,-65.7,-9.5,-81.9,3,-87.1C15.5,-92.2,31,-86.5,41.2,-76Z" transform="translate(100 100)" />
</svg>
